<svg width="82" height="82" viewBox="0 0 82 82" fill="none" xmlns="http://www.w3.org/2000/svg">
<g clip-path="url(#clip0_240_8616)">
<rect width="82" height="82" rx="12" fill="white"/>
<mask id="mask0_240_8616" style="mask-type:luminance" maskUnits="userSpaceOnUse" x="13" y="8" width="57" height="66">
<path d="M40.0341 8.75701L16.9843 31.8828C11.9636 36.9036 11.9636 45.1193 16.9843 50.1401L40.0341 73.1898C40.8708 74.0266 42.1641 74.0266 43.0009 73.1898L66.0506 50.1401C71.0713 45.1193 71.0713 36.9036 66.0506 31.8828L43.0009 8.75701C42.5444 8.37665 42.0119 8.14844 41.4794 8.14844C40.9469 8.14844 40.4144 8.37665 40.0341 8.75701Z" fill="white"/>
</mask>
<g mask="url(#mask0_240_8616)">
<path d="M71.0726 8.14844H11.9648V73.9505H71.0726V8.14844Z" fill="url(#paint0_linear_240_8616)"/>
</g>
<path d="M51.9091 33.326C50.9963 33.2499 50.0834 33.2499 49.0945 33.1738C49.9313 34.0106 50.768 34.8474 51.5288 35.8363C51.6048 35.6081 51.6809 35.0756 51.8331 34.3149C52.0613 33.2499 52.0613 33.402 51.9091 33.326ZM53.4306 48.3882C53.2784 47.3232 53.0502 46.4103 52.0613 45.8778C51.4527 45.4975 50.692 45.3453 50.1595 44.8128C50.2355 44.5846 50.3877 44.3564 50.5398 44.1282C50.6159 44.0521 50.6159 43.8999 50.6159 43.7478C50.6159 43.4435 50.6159 43.2153 50.5398 42.911C50.5398 42.6067 50.4638 42.3785 50.3877 42.0742L50.2355 41.7699C49.9313 42.3024 49.627 42.8349 49.627 43.4435C49.5509 43.9 49.627 44.4325 49.703 44.8889C49.7791 45.4214 49.8552 45.8778 50.0073 46.4103C50.3116 47.2471 51.2245 47.5514 51.9852 47.9318C52.3656 48.16 52.822 48.3882 53.0502 48.7685L53.1263 48.8446C52.9741 49.5293 52.822 50.2139 52.5177 50.8986C50.9963 54.2457 47.8773 56.9082 44.2259 57.5929C42.248 57.9732 40.0419 57.5929 38.3683 56.5279C38.1401 56.3757 37.8358 56.2236 37.6076 55.9954C37.2273 56.0714 36.7708 56.2236 36.2383 56.2236C36.3144 56.3757 36.3905 56.5279 36.5426 56.68C37.7598 58.5818 39.8137 59.6468 41.9437 59.9511C45.8995 60.4836 49.7791 58.0493 51.9091 54.8543C52.5177 53.9414 52.9741 52.9525 53.3545 51.9636C53.6588 50.7464 53.6588 49.6053 53.4306 48.3882ZM35.4015 51.2028C35.4015 50.8986 35.4015 50.5182 35.4776 50.2139C35.5537 49.225 35.858 48.236 36.1623 47.2471C36.923 45.041 38.3683 43.1392 40.1941 41.7699C40.4223 41.6178 40.7266 41.3896 40.9548 41.2374C41.1069 41.4657 41.2591 41.6939 41.3351 41.9982C41.4873 42.4546 41.4112 41.6178 41.4112 41.5417C41.4112 41.3135 41.4112 41.1614 41.3351 40.9331C42.9326 39.9442 44.6823 39.1835 46.3559 38.4228C47.2687 37.9663 48.2577 37.586 49.1705 37.1296C47.9534 35.8363 46.5841 34.6192 45.0627 33.6303C44.8344 33.4781 44.6062 33.326 44.378 33.1738C43.6934 33.1738 43.0087 33.1738 42.248 33.1738C40.5744 33.1738 38.9769 33.1738 37.3033 33.402C36.8469 33.4781 36.3144 33.5542 35.858 33.7824C35.5537 33.9345 35.1733 34.1628 35.0212 34.467C34.869 34.6953 34.793 34.8474 34.793 35.0756C34.793 35.6842 34.869 36.2167 34.9451 36.8253C35.0973 37.4338 35.2494 37.8903 35.7819 38.2706C36.4665 38.7271 37.3033 39.1074 37.988 39.4878C38.3683 39.716 38.7487 39.8681 39.053 40.0964C37.7598 41.2374 36.7708 42.5307 36.0101 44.1282C35.1733 45.9539 34.793 47.9318 34.793 49.8335C34.793 50.8225 34.869 51.8114 35.0212 52.8003C35.0973 53.1807 35.0973 53.5611 35.1733 53.9414C35.3255 53.9414 35.4776 53.9414 35.6298 53.9414C35.6298 53.8654 35.5537 53.7893 35.5537 53.7893C35.4015 53.5611 35.3255 53.2568 35.2494 52.9525C35.2494 52.8764 35.1733 52.8003 35.1733 52.6482C35.1733 52.5721 35.1733 52.5721 35.1733 52.4961V52.2678C35.1733 52.1918 35.1733 52.0396 35.1733 51.9636C35.1733 51.8875 35.1733 51.7353 35.1733 51.6593V51.5832C35.4015 51.2789 35.4015 51.2028 35.4015 51.2028ZM39.053 37.6621C38.4444 37.2817 37.7598 36.9774 37.1512 36.6731C36.7708 36.521 36.3905 36.2928 36.0862 36.1406C36.1623 36.0646 36.3144 35.9885 36.3905 35.9885C36.8469 35.8363 37.3794 35.7603 37.8358 35.6842C39.3573 35.456 40.9548 35.456 42.4762 35.456C44.0737 35.456 45.6712 35.456 47.2687 35.5321L46.5841 35.8363C44.5302 36.7492 42.4762 37.6621 40.5744 38.8792H40.4984C40.2701 38.3467 39.6616 37.9663 39.053 37.6621ZM35.4776 52.42C35.4776 52.6482 35.4776 52.4961 35.4776 52.42Z" fill="white"/>
<path d="M50.2343 41.7734C49.0933 42.1538 49.0172 43.447 48.1043 44.1317C47.6479 44.4359 47.1154 44.436 46.659 44.0556C46.2025 43.6752 46.2025 43.0667 46.2025 42.5342C46.2025 42.5342 46.2025 42.1538 46.1265 42.1538C46.0504 42.1538 45.9743 42.4581 45.9743 42.4581C45.8222 42.9906 45.7461 43.5231 45.7461 44.0556C45.7461 44.6642 45.7461 45.4249 46.0504 45.9574C46.3547 46.4138 46.8872 46.7181 47.4197 46.566C48.6368 46.1095 48.6368 44.436 49.854 44.0556C50.0822 43.9795 50.1583 43.1427 50.2343 42.9145C50.2343 42.9145 50.3104 41.7734 50.2343 41.7734Z" fill="white"/>
<path d="M46.0489 42.3048C45.6686 42.8373 45.2882 43.3698 44.9079 43.9023C44.5275 44.3588 44.1471 44.8913 43.6146 45.0434C43.0821 45.1955 42.5496 45.0434 42.2453 44.663C41.7889 44.2066 41.7889 43.522 41.7128 42.9134C41.7128 42.457 41.4846 43.2177 41.4085 43.2177C41.2564 43.6741 41.1803 44.2066 41.2564 44.663C41.3325 45.2716 41.3325 46.0323 41.7128 46.5648C42.0171 47.0213 42.5496 47.3256 43.1582 47.1734C43.7668 47.0213 44.2232 46.5648 44.6036 46.0323C45.06 45.4998 45.4404 44.8913 45.8968 44.2827C46.125 43.9023 46.2011 43.4459 46.2011 42.9895C46.2011 42.7612 46.2771 42.533 46.2011 42.3809C46.125 42.457 46.125 42.2287 46.0489 42.3048Z" fill="white"/>
<path d="M33.9578 45.7307C34.2621 45.8828 34.5664 45.9589 34.8707 46.035C34.7946 46.4914 34.6424 47.4043 34.4903 48.165C33.9578 48.0128 33.4253 47.7846 32.9689 47.5564C30.6106 46.2632 29.6217 43.5246 29.4696 40.9382C29.3174 37.8953 30.2303 34.8524 31.8278 32.266C33.3492 29.7556 35.6314 27.7777 37.9896 26.1042C38.5221 25.7238 39.0546 25.4195 39.6632 25.1152L41.0325 26.1802C39.8914 26.941 38.5982 27.6256 37.4571 28.4624C35.175 29.9838 33.121 31.9617 31.6756 34.2438C31.1431 35.0046 30.7628 35.8414 30.4585 36.7542C30.3064 37.2106 30.1542 37.591 30.0781 38.0474V38.1996V38.2757V38.3517C30.0781 38.5039 30.0781 38.5799 30.0781 38.7321C30.0781 38.8082 30.0781 38.8842 30.0781 38.9603V39.1885C30.0781 39.4167 30.0781 39.6449 30.1542 39.7971C30.3064 42.3835 31.5235 44.7418 33.9578 45.7307Z" fill="white"/>
<path d="M41.6355 43.3688C41.6355 43.8252 41.5594 44.3577 41.3312 44.8142C41.2551 44.9663 41.179 45.1945 41.0269 45.3467C40.2662 46.716 38.973 47.781 37.4515 48.2374C37.0712 48.3135 36.6908 48.3895 36.2344 48.3895C36.4626 47.781 36.8429 46.792 37.2233 46.1834C37.8319 46.1074 38.3644 45.8792 38.973 45.5749C40.038 44.9663 40.9508 43.9774 41.4073 42.9124C41.6355 42.532 41.6355 43.2166 41.6355 43.3688Z" fill="white"/>
<path d="M45.5207 19.2554C45.5207 19.7118 45.4446 20.2443 45.2925 20.7007C44.76 22.07 44.0753 23.3632 43.0864 24.4282L41.9453 23.5914C42.0975 23.5154 42.2496 23.3632 42.4017 23.2872C43.695 22.2222 44.76 20.7007 45.2925 19.1793C45.2925 19.1793 45.3685 18.875 45.4446 18.875C45.5207 18.9511 45.5207 19.1793 45.5207 19.2554Z" fill="white"/>
<path d="M47.0368 49.7581C46.1239 49.6059 45.2111 49.682 44.3743 50.1384C43.8418 50.4427 43.4614 50.8991 43.005 51.2034C41.6357 52.2684 40.1143 53.2574 38.4407 53.7899C36.4628 54.3984 34.1046 54.3984 32.355 53.1052C30.9857 52.1163 30.0728 50.4427 29.7685 48.8452C29.3121 46.7913 29.5403 44.6613 30.3771 42.7595L30.4532 42.5312C30.3771 42.5312 30.301 42.7595 30.301 42.7595C30.0728 43.1398 29.8446 43.5202 29.6924 43.9005C28.3231 47.0956 28.2471 51.4316 30.7574 54.0942C32.2789 55.6917 34.4089 56.072 36.4628 55.7677C38.3646 55.4635 40.1903 54.4745 41.7118 53.3334C42.1682 52.9531 42.6246 52.5727 43.0811 52.1924C43.9939 51.4316 45.0589 51.2034 46.2 51.4316C46.3522 51.4316 46.6565 50.747 46.7325 50.6709C46.6565 50.5188 47.0368 49.7581 47.0368 49.7581Z" fill="white"/>
<path d="M37.4605 20.245C37.4605 21.9185 37.9169 23.6682 38.7537 25.1896L37.7647 25.8743C37.004 23.7443 36.928 21.386 37.1562 19.18C37.1562 18.8757 37.2322 18.6475 37.3083 18.3432C37.3083 18.2671 37.3844 17.8867 37.4605 17.8867C37.6887 17.8107 37.5365 18.4953 37.5365 18.6475C37.4605 19.18 37.4605 19.7125 37.4605 20.245Z" fill="white"/>
<path d="M55.7804 48.5442C55.6283 44.8167 54.4872 41.1653 52.5093 38.0463C51.2161 35.9924 49.5425 34.0906 47.6407 32.5692C46.1954 31.352 44.5979 30.3631 43.0004 29.3742C42.0114 28.7656 41.0225 28.0809 40.1857 27.2441L38.8164 28.0809C39.425 28.9938 40.1857 29.7545 41.0986 30.4392C42.4679 31.4281 43.9893 32.2649 45.4347 33.2538C47.3364 34.547 49.0861 36.1445 50.6075 37.9703C53.0418 40.9371 54.6393 44.4364 55.2479 48.24C55.4001 49.2289 55.4761 50.37 55.4001 51.3589V51.435V51.511V51.5871V51.7393C55.4001 51.8153 55.324 51.9675 55.324 52.0435C55.2479 52.4239 55.0197 52.8803 54.8676 53.2607C54.0308 55.1625 52.7375 56.9121 51.14 58.3575C50.3793 59.0421 49.4665 59.7268 48.5536 60.1832C47.7929 60.6397 46.88 60.8679 46.0432 61.2482C45.1304 61.6286 44.2936 62.085 43.685 62.8457C42.8482 63.8347 42.4679 65.0518 42.2396 66.269C42.0875 66.8775 42.0875 67.5622 42.0114 68.1708C42.0114 68.1708 42.0114 68.4751 42.0875 68.4751C42.1636 68.4751 42.2396 68.1708 42.2396 68.1708C42.3918 67.7143 42.4679 67.1818 42.4679 66.7254C42.4679 66.7254 42.4679 66.6493 42.4679 66.5733V66.4972C42.4679 66.345 42.5439 66.1929 42.62 66.1168C42.8482 65.5843 43.1525 65.1279 43.5329 64.6715C44.2175 63.9868 45.0543 63.5304 45.9672 63.15C46.8039 62.8457 47.6407 62.5415 48.4775 62.085C49.3904 61.5525 50.1511 61.02 50.9118 60.3354C52.4333 58.9661 53.7265 57.2164 54.6393 55.3146C55.4761 53.1085 55.8565 50.8264 55.7804 48.5442Z" fill="white"/>
<path d="M56.2383 44.0553C56.2383 44.5117 56.1623 45.0442 55.9341 45.5007C55.7058 45.881 55.7819 45.1964 55.7819 45.1203C55.7819 44.9682 55.7819 44.816 55.7819 44.7399C55.7819 44.6639 55.7819 44.5878 55.7819 44.5117C55.7819 44.2074 55.7819 43.9032 55.7819 43.6749C55.7819 43.0664 55.7058 42.3817 55.6298 41.7731C55.4016 40.4039 54.9451 39.0346 54.2605 37.7413C53.6519 36.6003 52.9673 35.6113 52.1305 34.6224C52.1305 34.5463 52.1305 34.5463 52.1305 34.4702C52.2065 34.166 52.2065 33.9377 52.2826 33.8617C52.2826 33.7856 52.2826 33.7095 52.2826 33.7095V33.6335V33.5574C52.2826 33.5574 52.2826 33.4813 52.2826 33.4052C52.2826 33.3292 52.2826 33.3292 52.2065 33.2531L52.1305 33.177C52.0544 33.101 51.9783 33.101 51.9783 33.101C51.9023 33.101 51.9023 33.101 51.9023 33.101C51.9023 33.101 51.9023 33.101 51.8262 33.101C51.3698 33.101 50.9894 33.0249 50.533 33.0249C48.9355 31.5035 47.1097 30.1342 45.284 28.917C43.3822 27.5477 41.3283 26.4066 39.5786 24.8852C38.1333 23.592 37.0683 21.9184 36.9922 19.9405C36.9922 19.4841 37.0683 18.9516 37.1443 18.4952C37.1443 18.4191 37.3725 17.7345 37.4486 18.1909C37.5247 20.5491 39.1222 22.2988 40.9479 23.6681C42.8497 25.1134 44.8276 26.3306 46.7294 27.6999C48.403 28.917 50.0765 30.2102 51.5219 31.7317C53.0433 33.3292 54.4126 35.1549 55.2494 37.2088C56.2383 39.1867 56.4666 41.621 56.2383 44.0553Z" fill="white"/>
<path d="M43.77 21.307C43.3896 21.7634 42.781 22.4481 42.4768 22.6763C42.1725 22.4481 41.9443 22.2199 41.64 21.9917C40.4989 21.0027 39.2817 19.8616 38.521 18.5684C37.6082 16.9709 37.5321 15.2213 37.8364 13.4716C37.8364 13.3955 37.9885 12.4066 38.1407 12.4827C38.2928 12.4827 38.1407 13.4716 38.1407 13.5477V13.6238C38.1407 13.6238 38.1407 13.6238 38.1407 13.6998V13.7759C38.1407 14.0041 38.1407 14.2323 38.1407 14.3845C38.2167 14.8409 38.2928 15.2973 38.445 15.6777C38.7492 16.5145 39.2057 17.1991 39.8142 17.8838C40.9553 19.177 42.3246 20.3181 43.77 21.307Z" fill="white"/>
<path d="M56.162 44.8901C56.162 44.9662 56.0099 45.7269 55.8577 45.5747C55.7817 45.4987 55.8577 45.1183 55.8577 45.0422C55.8577 44.738 55.9338 44.5097 55.9338 44.2054C56.4663 41.4669 56.3142 38.3479 55.2492 35.6854C53.6517 31.3493 50.1523 27.7739 46.3488 25.1875C45.9684 24.9593 45.512 24.655 45.1316 24.4268C44.8273 24.2746 44.523 24.0464 44.2188 23.8943C44.523 23.5139 44.9795 22.6771 45.2077 22.2207C46.0445 22.7532 46.8052 23.2096 47.5659 23.7421C49.4677 25.1114 51.1413 26.7089 52.5866 28.5347C54.1842 30.4365 55.4013 32.6425 56.0859 35.0768C56.9227 38.2718 56.7706 41.619 56.162 44.8901Z" fill="white"/>
<path d="M47.5759 40.632C47.4237 40.5559 47.2716 40.4037 47.1955 40.3277C47.1194 40.2516 46.8912 40.1755 46.7391 40.0995C46.7391 40.0995 46.663 39.7952 46.663 40.0234C46.663 40.0995 46.663 40.0995 46.7391 40.1755C46.8151 40.1755 46.8151 40.2516 46.8912 40.2516C47.0434 40.3277 47.1194 40.4798 47.1955 40.632C47.6519 41.2405 47.9562 42.0013 48.1844 42.6859C48.1844 42.6098 48.4887 42.3055 48.4887 42.2295C48.4887 41.4687 48.4887 40.708 48.5648 39.9473C48.5648 39.8712 48.6409 39.643 48.6409 39.567C48.5648 39.643 48.5648 39.7191 48.4887 39.7952H48.5648C48.6409 39.7952 48.7169 39.7191 48.793 39.7191C49.0973 39.7191 49.3255 39.9473 49.3255 40.2516C49.3255 40.1755 49.6298 39.9473 49.6298 39.7952C49.6298 39.4148 49.2494 39.1105 48.8691 39.2627C48.6409 39.3387 48.5648 39.643 48.4887 39.8712C48.3366 40.1755 48.3366 40.5559 48.3366 40.9362C48.3366 41.5448 48.2605 42.1534 48.2605 42.6859C48.3366 42.5338 48.4126 42.3816 48.5648 42.2295C48.3366 41.697 48.1084 41.0884 47.8041 40.632C47.6519 40.4037 47.2716 39.643 46.8912 39.7191C46.663 39.7952 46.5108 40.2516 46.4348 40.4037C46.3587 40.632 46.4348 40.632 46.663 40.708C46.8912 40.7841 47.1194 41.0123 47.2716 41.1645C47.3476 41.1645 47.6519 40.708 47.5759 40.632Z" fill="white"/>
<path d="M32.8844 41.0851C32.7323 41.009 32.5802 40.8569 32.5041 40.7808C32.428 40.7047 32.1998 40.6287 32.0477 40.5526C32.0477 40.5526 31.9716 40.2483 31.9716 40.4765C31.9716 40.5526 31.9716 40.5526 32.0477 40.6287C32.1237 40.6287 32.1237 40.7047 32.1998 40.7047C32.3519 40.7808 32.428 40.9329 32.5041 41.0851C32.9605 41.6937 33.2648 42.4544 33.493 43.139C33.493 43.063 33.7973 42.7587 33.7973 42.6826C33.7973 41.9219 33.7973 41.1612 33.8734 40.4004C33.8734 40.3244 33.9495 40.0962 33.9495 40.0201C33.8734 40.0962 33.8734 40.1722 33.7973 40.2483H33.8734C33.9495 40.2483 34.0255 40.1722 34.1016 40.1722C34.4059 40.1722 34.6341 40.4004 34.6341 40.7047C34.6341 40.6287 34.9384 40.4004 34.9384 40.2483C34.9384 39.8679 34.558 39.5636 34.1777 39.7158C33.9495 39.7919 33.8734 40.0962 33.7973 40.3244C33.6452 40.6287 33.6452 41.009 33.6452 41.3894C33.6452 41.9979 33.5691 42.6065 33.5691 43.139C33.6452 42.9869 33.7212 42.8347 33.8734 42.6826C33.6452 42.1501 33.4169 41.5415 33.1127 41.0851C32.8844 40.8569 32.5041 40.0961 32.1237 40.1722C31.8955 40.1722 31.7434 40.6287 31.7434 40.8569C31.6673 41.0851 31.7434 41.0851 31.9716 41.1612C32.1998 41.2372 32.428 41.4654 32.5802 41.6176C32.5802 41.6176 32.8844 41.1612 32.8844 41.0851Z" fill="white"/>
<path d="M48.638 50.1421C48.4098 50.8268 48.1815 51.6636 48.1055 52.4243C48.1055 52.8807 48.1815 53.4893 48.714 53.5654C49.1705 53.6414 49.6269 53.185 49.8551 52.8807C50.0073 52.6525 50.1594 52.3482 50.2355 52.12C50.3115 51.9679 50.3116 51.8918 50.1594 52.0439C49.9312 52.4243 49.3987 52.6525 49.0183 52.3482C48.638 52.0439 48.638 51.5114 48.714 51.1311C48.7901 50.5225 49.0183 49.9139 49.1705 49.3053C49.2465 49.0771 49.0183 49.4575 49.0183 49.4575C48.8662 49.6096 48.714 49.9139 48.638 50.1421Z" fill="white"/>
<path d="M40.1927 61.6226C39.9644 62.3073 39.7362 63.144 39.6602 63.9048C39.6602 64.3612 39.7362 64.9698 40.2687 65.0458C40.7252 65.1219 41.1816 64.6655 41.4098 64.3612C41.562 64.133 41.7141 63.8287 41.7902 63.6005C41.8662 63.4483 41.8662 63.3723 41.7141 63.5244C41.4859 63.9048 40.9534 64.133 40.573 63.8287C40.1927 63.5244 40.1927 62.9919 40.2687 62.6115C40.3448 62.003 40.573 61.3944 40.7252 60.7858C40.8012 60.5576 40.573 60.938 40.573 60.938C40.4209 61.0901 40.2687 61.3944 40.1927 61.6226Z" fill="white"/>
<path d="M35.9348 58.9644C35.7066 59.649 35.4784 60.4858 35.4023 61.2466C35.4023 61.703 35.4784 62.3116 36.0109 62.3876C36.4673 62.4637 36.9238 62.0073 37.152 61.703C37.3041 61.4748 37.4563 61.1705 37.5324 60.9423C37.6084 60.7901 37.6084 60.7141 37.4563 60.8662C37.2281 61.2466 36.6956 61.4748 36.3152 61.1705C35.9348 60.8662 35.9348 60.3337 36.0109 59.9533C36.087 59.3448 36.3152 58.7362 36.4673 58.1276C36.5434 57.8994 36.3152 58.2798 36.3152 58.2798C36.1631 58.4319 36.0109 58.6601 35.9348 58.9644Z" fill="white"/>
<path d="M42.3177 14.232C42.0894 14.9166 41.8612 15.7534 41.7852 16.5141C41.7852 16.9706 41.8612 17.5791 42.3937 17.6552C42.8502 17.7313 43.3066 17.2748 43.5348 16.9706C43.687 16.7423 43.8391 16.4381 43.9152 16.2098C43.9912 16.0577 43.9912 15.9816 43.8391 16.1338C43.6109 16.5141 43.0784 16.7423 42.698 16.4381C42.3177 16.1338 42.3177 15.6013 42.3937 15.2209C42.4698 14.6123 42.698 14.0038 42.8502 13.3952C42.9262 13.167 42.698 13.5473 42.698 13.5473C42.5459 13.6995 42.3937 13.9277 42.3177 14.232Z" fill="white"/>
<path d="M43.3098 53.4878C43.0816 54.1725 42.8534 55.0093 42.7773 55.77C42.7773 56.2264 42.8534 56.835 43.3859 56.9111C43.8423 56.9871 44.2988 56.5307 44.527 56.2264C44.6791 55.9982 44.8313 55.6939 44.9074 55.4657C44.9834 55.3136 44.9834 55.2375 44.8313 55.3896C44.6031 55.77 44.0706 55.9982 43.6902 55.6939C43.3098 55.3896 43.3098 54.8571 43.3859 54.4768C43.462 53.8682 43.6902 53.2596 43.8423 52.651C43.9184 52.4228 43.6902 52.8032 43.6902 52.8032C43.5381 52.9553 43.462 53.1835 43.3098 53.4878Z" fill="white"/>
<path d="M32.7317 49.148C32.5035 49.8326 32.2753 50.6694 32.1992 51.4301C32.1992 51.8866 32.2753 52.4952 32.8078 52.5712C33.2642 52.6473 33.7207 52.1909 33.9489 51.8866C34.101 51.6584 34.2532 51.3541 34.3292 51.1259C34.4053 50.9737 34.4053 50.8976 34.2532 51.0498C34.0249 51.4301 33.4924 51.6584 33.1121 51.3541C32.7317 51.0498 32.7317 50.5173 32.8078 50.1369C32.8839 49.5284 33.1121 48.9198 33.2642 48.3112C33.3403 48.083 33.1121 48.4633 33.1121 48.4633C32.9599 48.6155 32.8078 48.9198 32.7317 49.148Z" fill="white"/>
<path d="M32.8914 36.8276C32.6632 37.3601 32.4349 38.0448 32.511 38.6533C32.511 38.9576 32.6632 39.4141 33.0435 39.4141C33.3478 39.4141 33.576 39.1098 33.8042 38.8816C33.9564 38.7294 34.0324 38.5012 34.1085 38.273C34.1846 38.1208 34.1846 38.1208 34.0325 38.273C33.8803 38.5012 33.4999 38.7294 33.1957 38.5012C32.8914 38.273 32.8914 37.8926 32.8914 37.5883C32.9674 37.0558 33.1196 36.5994 33.2717 36.143C33.3478 35.9908 33.1196 36.219 33.1196 36.2951C33.0435 36.4473 32.9674 36.6755 32.8914 36.8276Z" fill="white"/>
<path d="M37.828 50.5965C38.5127 51.2812 39.1973 51.9658 40.0341 52.5744C40.0341 52.5744 41.7077 50.2922 41.5555 50.2161C40.7948 49.6076 40.0341 48.999 39.3495 48.2383C39.3495 48.2383 38.5887 49.3033 38.5127 49.3794C38.3605 49.6836 38.1323 49.9119 37.9802 50.2161C37.9802 50.2922 37.752 50.5204 37.828 50.5965Z" fill="white"/>
<path d="M36.4589 31.3499C36.9914 31.2738 37.6 31.2738 38.1325 31.2738C38.2846 31.2738 38.4368 31.2738 38.5128 31.3499H38.5889C38.665 31.1977 38.741 30.9695 38.8171 30.8174C39.1975 30.0566 38.9693 30.5891 38.741 30.8174C38.5889 30.9695 38.4368 31.2738 38.2846 31.502C38.2085 31.6541 38.1325 31.7302 38.1325 31.8824C38.1325 31.8824 38.0564 32.0345 38.1325 31.9584C38.5128 31.5781 38.8171 31.1216 39.0453 30.5891C39.1214 30.437 39.2735 30.2088 39.0453 30.1327C38.8171 30.0566 38.5128 30.0566 38.2846 30.0566C37.8282 30.0566 37.4478 30.0566 36.9914 30.1327C36.9153 30.1327 36.8392 30.2849 36.8392 30.2849C36.7632 30.437 36.6871 30.5891 36.611 30.6652C36.535 30.8174 36.4589 30.9695 36.3828 31.1216C36.535 31.1977 36.4589 31.3499 36.4589 31.3499Z" fill="white"/>
<path d="M38.4428 31.3494C38.4428 31.3494 37.1496 32.3383 36.8453 32.3383C36.541 32.4144 36.7692 32.4905 36.9214 32.4144C37.1496 32.3384 38.0624 32.2623 38.3667 31.8819C38.595 31.5016 38.671 31.0451 38.4428 31.3494Z" fill="white"/>
<mask id="mask1_240_8616" style="mask-type:luminance" maskUnits="userSpaceOnUse" x="8" y="2" width="66" height="78">
<path d="M40.4898 3.05048C40.1855 3.20262 39.8812 3.35477 39.653 3.65906L13.6365 29.5995C12.039 31.197 10.8979 32.9467 10.1372 34.9246C9.37645 36.8264 8.99609 38.8803 8.99609 40.9342C8.99609 42.9882 9.37645 45.0421 10.1372 46.9439C10.8979 48.8457 12.115 50.6714 13.6365 52.2689L39.653 78.2855L40.0334 77.9051L40.4137 77.5248L14.3972 51.5843C12.9518 50.1389 11.8107 48.4653 11.1261 46.6396C10.3654 44.8139 10.0611 42.9121 10.0611 41.0103C10.0611 39.1085 10.4415 37.2067 11.1261 35.381C11.8868 33.5553 12.9518 31.8817 14.3972 30.4363L40.4137 4.3437C40.5659 4.19156 40.718 4.11549 40.9462 4.03941C41.0984 3.96334 41.3266 3.96334 41.5548 3.96334C41.783 3.96334 41.9352 3.96334 42.1634 4.03941C42.3155 4.11549 42.5438 4.19156 42.6959 4.3437L68.7124 30.3603C70.1578 31.8056 71.2989 33.4792 71.9835 35.3049C72.7443 37.1306 73.0485 39.0324 73.0485 40.9342C73.0485 42.836 72.6682 44.7378 71.9835 46.5635C71.2228 48.3893 70.1578 50.0628 68.7124 51.5082L42.6198 77.6008C42.4677 77.753 42.3155 77.829 42.0873 77.9051C41.9352 77.9812 41.707 77.9812 41.4787 77.9812C41.2505 77.9812 41.0984 77.9812 40.8702 77.9051C40.718 77.829 40.4898 77.753 40.3377 77.6008L39.9573 77.9812L39.577 78.3615C39.8052 78.5898 40.1095 78.818 40.4137 78.9701C40.718 79.1223 41.0984 79.1983 41.4027 79.1983C41.707 79.1983 42.0873 79.1223 42.3916 78.9701C42.6959 78.818 43.0002 78.6658 43.2284 78.3615L69.245 52.345C70.8425 50.7475 71.9835 48.9978 72.7443 47.02C73.505 45.1182 73.8853 43.0642 73.8853 41.0103C73.8853 38.9564 73.505 36.9024 72.7443 35.0006C71.9835 33.0988 70.7664 31.2731 69.245 29.6756L43.3805 3.58298C43.1523 3.35477 42.848 3.12655 42.5438 2.97441C42.1634 2.89834 41.8591 2.82227 41.4787 2.82227C41.0984 2.82227 40.8702 2.89834 40.4898 3.05048Z" fill="white"/>
</mask>
<g mask="url(#mask1_240_8616)">
<path d="M74.1154 2.82227H8.92188V79.1223H74.1154V2.82227Z" fill="url(#paint1_linear_240_8616)"/>
</g>
</g>
<defs>
<linearGradient id="paint0_linear_240_8616" x1="41.5058" y1="59.7817" x2="41.5058" y2="27.9879" gradientUnits="userSpaceOnUse">
<stop stop-color="#1E3F76"/>
<stop offset="0.4286" stop-color="#234683"/>
<stop offset="1" stop-color="#2C559B"/>
</linearGradient>
<linearGradient id="paint1_linear_240_8616" x1="8.94896" y1="40.9755" x2="74.1179" y2="40.9755" gradientUnits="userSpaceOnUse">
<stop stop-color="#1E3F76"/>
<stop offset="0.4286" stop-color="#234683"/>
<stop offset="1" stop-color="#2C559B"/>
</linearGradient>
<clipPath id="clip0_240_8616">
<rect width="82" height="82" rx="12" fill="white"/>
</clipPath>
</defs>
</svg>
